<?xml version="1.0" encoding="UTF-8" standalone="no"?>
<!DOCTYPE svg PUBLIC "-//W3C//DTD SVG 1.1//EN" "http://www.w3.org/Graphics/SVG/1.1/DTD/svg11.dtd">
<svg width="100%" height="100%" viewBox="0 0 958 111" version="1.1" xmlns="http://www.w3.org/2000/svg" xmlns:xlink="http://www.w3.org/1999/xlink" xml:space="preserve" xmlns:serif="http://www.serif.com/" style="fill-rule:evenodd;clip-rule:evenodd;stroke-linejoin:round;stroke-miterlimit:2;">
    <g id="Capa-1" serif:id="Capa 1" transform="matrix(1,0,0,1,-121,-545)">
        <g transform="matrix(1,0,0,1,397.396,619.931)">
            <path d="M0,-38.627L-0.03,-39.184C-0.123,-39.617 -0.196,-40.093 -0.244,-40.607C-0.299,-41.22 -0.386,-41.831 -0.498,-42.443L-0.573,-42.86L-0.648,-42.929C-0.648,-42.939 -0.648,-42.95 -0.649,-42.963C-0.77,-43.837 -1.056,-44.828 -1.502,-45.932C-3.034,-50.365 -5.335,-54.414 -8.346,-57.967C-11.344,-61.505 -15.022,-64.545 -19.282,-67.007C-26.666,-71.214 -35.347,-73.347 -45.084,-73.347L-84.275,-73.347L-84.275,-57.325L-43.013,-57.325C-39.707,-57.325 -36.641,-56.688 -33.898,-55.429C-31.129,-54.159 -28.681,-52.459 -26.621,-50.377C-24.563,-48.296 -22.934,-45.888 -21.781,-43.224C-20.635,-40.573 -20.053,-37.771 -20.053,-34.895C-20.053,-32.02 -20.635,-29.217 -21.781,-26.564C-22.935,-23.897 -24.563,-21.491 -26.621,-19.409C-28.681,-17.328 -31.129,-15.628 -33.898,-14.357C-36.641,-13.099 -39.707,-12.462 -43.013,-12.462L-65.922,-12.461L-84.275,-13.033L-84.275,34.72L-64.7,34.72L-64.7,3.56L-45.084,3.56C-40.222,3.56 -35.558,2.991 -31.223,1.868C-26.889,0.746 -22.879,-0.815 -19.276,-2.783C-15.023,-5.24 -11.346,-8.28 -8.346,-11.82C-5.333,-15.375 -3.03,-19.476 -1.54,-23.901C-1.301,-24.443 -1.123,-24.93 -0.999,-25.37C-0.89,-25.771 -0.778,-26.222 -0.667,-26.724L-0.021,-30.928C0.092,-31.543 0.177,-32.155 0.233,-32.765C0.291,-33.374 0.319,-34.037 0.319,-34.75L0.319,-35.036C0.319,-35.75 0.291,-36.413 0.234,-37.02C0.177,-37.633 0.092,-38.244 0,-38.627" style="fill:rgb(0,136,190);fill-rule:nonzero;"/>
        </g>
        <g transform="matrix(1,0,0,1,690.851,584.14)">
            <path d="M0,32.954C4.319,30.507 8.017,27.484 10.995,23.97C14.003,20.424 16.306,16.375 17.895,11.698C17.988,11.04 18.229,10.221 18.613,9.264L18.704,8.438C18.91,7.84 19.041,7.254 19.098,6.692C19.146,6.199 19.223,5.685 19.342,4.918L19.321,4.862C19.441,4.215 19.502,3.557 19.502,2.907L19.502,-1.114C19.502,-1.745 19.446,-2.376 19.321,-3.21C19.223,-3.746 19.147,-4.281 19.099,-4.819C19.043,-5.426 18.911,-6.001 18.704,-6.535L18.704,-7L18.597,-7.511C18.413,-7.926 18.273,-8.299 18.181,-8.632C18.08,-8.995 17.979,-9.405 17.841,-9.99C14.78,-19.058 8.743,-26.201 -0.12,-31.228C-3.702,-33.184 -7.684,-34.744 -11.956,-35.865C-16.239,-36.988 -20.879,-37.557 -25.743,-37.557L-64.933,-37.557L-64.933,-21.534L-23.671,-21.534C-20.364,-21.534 -17.298,-20.895 -14.557,-19.634C-11.792,-18.363 -9.371,-16.682 -7.36,-14.639C-5.35,-12.596 -3.72,-10.177 -2.515,-7.45C-1.318,-4.747 -0.711,-1.962 -0.711,0.825C-0.711,3.704 -1.317,6.509 -2.512,9.165C-3.719,11.851 -5.354,14.275 -7.37,16.371C-9.377,18.457 -11.796,20.157 -14.557,21.428C-17.298,22.688 -20.364,23.328 -23.671,23.328L-46.58,23.329L-64.933,22.757L-64.933,70.511L-45.358,70.511L-45.358,39.35L-25.743,39.35C-24.222,39.35 -22.809,39.301 -21.506,39.203C-20.486,39.126 -19.468,39.02 -18.449,38.885L-0.502,70.511L20.401,70.511L-0.563,33.318C-0.36,33.214 -0.171,33.093 0,32.954" style="fill:rgb(0,136,190);fill-rule:nonzero;"/>
        </g>
        <g transform="matrix(1,0,0,1,122.327,545.349)">
            <path d="M0,109.158L21.486,109.158L59.37,40.435L86.865,90.31L58.109,90.31L58.109,109.158L118.742,109.158L59.37,0L0,109.158Z" style="fill:rgb(0,136,190);fill-rule:nonzero;"/>
        </g>
        <g transform="matrix(1,0,0,1,782.406,545.349)">
            <path d="M0,109.158L21.485,109.158L59.37,40.435L86.865,90.31L58.109,90.31L58.109,109.158L118.742,109.158L59.37,0L0,109.158Z" style="fill:rgb(0,136,190);fill-rule:nonzero;"/>
        </g>
        <g transform="matrix(1,0,0,1,492.292,654.292)">
            <path d="M0,-63.941L-21.664,-63.941L-21.664,0L60.712,0L60.712,-17.314L0,-17.314L0,-63.941Z" style="fill:rgb(0,136,190);fill-rule:nonzero;"/>
        </g>
        <g transform="matrix(1,0,0,1,0,-1.986)">
            <rect x="509.471" y="592.336" width="43.534" height="17.314" style="fill:rgb(0,136,190);"/>
        </g>
        <g transform="matrix(1,0,0,1,0,-88.8)">
            <rect x="470.629" y="635.743" width="82.376" height="17.314" style="fill:rgb(0,136,190);"/>
        </g>
        <g transform="matrix(1,0,0,1,1007.01,654.435)">
            <path d="M0,-107.636L0,0L19.416,0L19.416,-90.322L70.66,-90.322L70.66,-107.636L0,-107.636Z" style="fill:rgb(0,136,190);fill-rule:nonzero;"/>
        </g>
        <g transform="matrix(1,0,0,1,0,-89.088)">
            <rect x="949.529" y="635.887" width="41.662" height="17.314" style="fill:rgb(0,136,190);"/>
        </g>
    </g>
</svg>
