<?xml version="1.0" encoding="UTF-8" standalone="no"?>
<!DOCTYPE svg PUBLIC "-//W3C//DTD SVG 1.1//EN" "http://www.w3.org/Graphics/SVG/1.1/DTD/svg11.dtd">
<svg width="100%" height="100%" viewBox="0 0 830 663" version="1.1" xmlns="http://www.w3.org/2000/svg" xmlns:xlink="http://www.w3.org/1999/xlink" xml:space="preserve" xmlns:serif="http://www.serif.com/" style="fill-rule:evenodd;clip-rule:evenodd;stroke-linejoin:round;stroke-miterlimit:2;">
    <g id="Capa-1" serif:id="Capa 1" transform="matrix(1,0,0,1,-278,-268)">
        <g transform="matrix(1,0,0,1,630.225,634.213)">
            <path d="M0,-68.78C-19.32,-68.801 -32.24,-82.449 -31.918,-102.499C-31.622,-120.927 -18.263,-134.288 0.394,-134.817C17.96,-135.314 34.036,-119.281 34.01,-101.292C33.983,-82.7 19.399,-68.759 0,-68.78M178.547,33.673L164.745,6.07L127.796,-67.829L53.896,-215.627L16.947,-289.527L-20.003,-363.465L-56.953,-289.527L-93.902,-215.627L-167.802,-67.829L-204.751,6.07L-241.701,79.97L-278.651,153.869L-315.6,227.768L-349.059,294.685C-308.296,242.409 -260.373,196.321 -206.81,157.987C-164.671,127.828 -119.013,102.546 -70.654,82.763C-108.169,14.91 -115.885,-65.034 -83.44,-136.487C-62.29,-49.831 -4.428,-25.281 78.474,-39.115C60.84,-22.695 45.052,5.981 52.338,45.986C70.207,42.5 88.296,39.653 106.633,37.644C130.265,35.055 154.252,33.692 178.547,33.673" style="fill:rgb(0,64,133);fill-rule:nonzero;"/>
        </g>
        <g transform="matrix(0,-1,-1,0,905.807,666.934)">
            <path d="M-17.291,-17.291C-7.741,-17.291 0,-9.55 0,0C0,9.55 -7.741,17.291 -17.291,17.291C-26.841,17.291 -34.582,9.55 -34.582,0C-34.582,-9.55 -26.841,-17.291 -17.291,-17.291" style="fill:rgb(0,64,133);fill-rule:nonzero;"/>
        </g>
        <g transform="matrix(0,-1,-1,0,512.16,768.525)">
            <path d="M-29.564,-29.564C-13.236,-29.564 0,-16.328 0,0C0,16.327 -13.236,29.564 -29.564,29.564C-45.892,29.564 -59.128,16.327 -59.128,0C-59.128,-16.328 -45.892,-29.564 -29.564,-29.564" style="fill:rgb(0,64,133);fill-rule:nonzero;"/>
        </g>
        <g transform="matrix(1,0,0,1,868.87,817.454)">
            <path d="M36.95,44.527L-36.95,-103.271L-45.973,-121.317C-19.084,-124.225 8.212,-125.728 35.85,-125.728C105.989,-125.728 173.928,-116.072 238.542,-98.082C165.395,-125.935 86.307,-141.17 3.759,-141.17C-15.906,-141.17 -35.368,-140.279 -54.607,-138.587C-77.97,-136.532 -100.978,-133.214 -123.602,-128.778C-153.289,-122.956 -182.309,-115.197 -210.485,-105.523C-338.384,-61.61 -433.404,4.234 -514.564,111.444C-421.235,8.517 -317.666,-52.638 -182.953,-93.422C-144.448,-75.35 -107.86,-53.702 -73.628,-28.83C-18.435,11.274 29.266,56.88 70.585,111.798L36.95,44.527Z" style="fill:rgb(0,64,133);fill-rule:nonzero;"/>
        </g>
    </g>
</svg>
